PathFileType	4	(x/y/z)	Passive_Pref0006.trc
DataRate	CameraRate	NumFrames	NumMarkers	Units	OrigDataRate	OrigDataStartFrame	OrigNumFrames
240	240	11	50	mm	240	263	300
Frame#	Time	R_AC			L_AC			HEAD			STERN			C7			L_IC			R_IC			L_ASIS			R_ASIS			L_GT			R_GT			R_PSIS			L_PSIS			SACRAL			L_LAT_KNEE			L_MED_KNEE			R_LAT_KNEE			R_MED_KNEE			L_LAT_ANK			L_MED_ANK			R_LAT_ANK			R_MED_ANK			L_THIGH_PROX_POST			L_THIGH_PROX_ANT			L_THIGH_DIST_ANT			L_THIGH_DIST_POST			R_THIGH_PROX_POST			R_THIGH_PROX_ANT			R_THIGH_DIST_ANT			R_THIGH_DIST_POST			L_SHANK_PROX_POST			L_SHANK_PROX_ANT			L_SHANK_DIST_ANT			L_SHANK_DIST_POST			R_SHANK_PROX_POST			R_SHANK_PROX_ANT			R_SHANK_DIST_ANT			R_SHANK_DIST_POST			L_HEEL_LAT			L_HEEL_SUP			L_HEEL_MED			R_HEEL_LAT			R_HEEL_SUP			R_HEEL_MED			L_1ST_MET			L_5TH_MET			L_TOE			R_1ST_MET			R_5TH_MET			R_TOE			
		X1	Y1	Z1	X2	Y2	Z2	X3	Y3	Z3	X4	Y4	Z4	X5	Y5	Z5	X6	Y6	Z6	X7	Y7	Z7	X8	Y8	Z8	X9	Y9	Z9	X10	Y10	Z10	X11	Y11	Z11	X12	Y12	Z12	X13	Y13	Z13	X14	Y14	Z14	X15	Y15	Z15	X16	Y16	Z16	X17	Y17	Z17	X18	Y18	Z18	X19	Y19	Z19	X20	Y20	Z20	X21	Y21	Z21	X22	Y22	Z22	X23	Y23	Z23	X24	Y24	Z24	X25	Y25	Z25	X26	Y26	Z26	X27	Y27	Z27	X28	Y28	Z28	X29	Y29	Z29	X30	Y30	Z30	X31	Y31	Z31	X32	Y32	Z32	X33	Y33	Z33	X34	Y34	Z34	X35	Y35	Z35	X36	Y36	Z36	X37	Y37	Z37	X38	Y38	Z38	X39	Y39	Z39	X40	Y40	Z40	X41	Y41	Z41	X42	Y42	Z42	X43	Y43	Z43	X44	Y44	Z44	X45	Y45	Z45	X46	Y46	Z46	X47	Y47	Z47	X48	Y48	Z48	X49	Y49	Z49	X50	Y50	Z50	

263	1.0953	621.55	1535	501.85	585.15	1553.3	98.611	670.45	1855.2	312.83	688.02	1489.7	303.53	540.36	1584.9	312.5	571.54	1114.2	141.21	581.52	1135.1	481.56	648.51	1044.1	181.2	644.63	1044	451.21	564.09	958.99	121.05	529.79	970.46	485.69	428.68	1050	342.68	430.44	1041.3	257.66	419.12	1012.4	300.68	742.04	586.2	150.26	755.12	591.08	288.2	482.22	556.01	445.05	495.76	558.55	311.56	739.62	138.89	143.89	721.59	129.47	224.07	361.1	110.01	373.55	401.09	133.74	274.74	661.27	810.83	130.65	715.82	831.37	165.6	742.15	763.98	173.7	691.99	741.85	140.56	473.53	831.62	460.76	529.88	826.44	487.67	517.96	752.82	477.35	468.87	758.51	451.2	750.06	530.93	159.5	800.01	563.02	177.24	807.08	495.86	186.75	760.16	469.53	159.8	399.23	405.7	437.28	456.28	395.13	437.36	441.37	322.28	422.38	386.09	330.44	421.09	688.61	65.546	131.49	664.78	86.562	163.7	675.85	54.973	197.16	284.67	80.796	329.5	292.96	108.94	295.01	315.13	78.941	270.7	877.49	64.072	264.05	887.55	77.081	147.96	938.38	100.48	237.86	525.56	44.01	294.98	475.49	35.899	406.38	572.17	43.096	355.9
264	1.0995	626.33	1534.1	501.54	590.19	1552.4	98.262	675.44	1854.3	312.43	692.9	1488.8	303.26	545.31	1584.1	312.14	576.28	1113.2	140.88	585.98	1134.4	481.27	653.24	1043.2	181	649.07	1043.2	451.01	568.86	958	120.84	533.93	970.03	485.46	433.35	1049.4	342.21	435.17	1040.6	257.18	423.66	1011.8	300.25	747.65	585.85	150.96	760.7	591.05	288.87	483.56	556.1	444.74	497.1	558.52	311.29	754.3	138.63	144.61	736.5	128.92	224.86	361.53	110.26	373.38	401.46	133.94	274.48	666.05	809.8	130.71	720.38	830.29	165.55	746.81	763.09	174.09	696.85	740.85	140.88	476.81	831.74	460.5	533.14	826.2	487.38	520.77	752.66	477.03	471.71	758.67	450.92	756.77	530.77	160.2	806.05	563.86	177.93	814.49	496.86	187.43	768.09	469.59	160.49	399.97	406.03	436.94	457	395.32	437.11	441.94	322.5	422.15	386.69	330.79	420.78	704.7	64.245	132.21	680.52	84.781	164.48	691.88	53.256	197.87	284.87	81.318	329.19	293.24	109.42	294.65	315.41	79.32	270.39	893.65	66.6	264.69	903.39	79.786	148.58	953.77	104.2	238.44	525.68	43.914	294.98	475.49	35.928	406.32	572.27	42.949	355.93
265	1.1037	631.12	1533.1	501.21	595.23	1551.6	97.907	680.42	1853.4	312.03	697.8	1487.9	302.99	550.27	1583.2	311.78	581.02	1112.2	140.53	590.48	1133.6	480.97	657.96	1042.2	180.78	653.53	1042.4	450.78	573.62	956.95	120.62	538.1	969.59	485.24	438.06	1048.8	341.76	439.9	1039.8	256.72	428.2	1011.1	299.83	753.21	585.46	151.65	766.26	590.97	289.53	484.91	556.19	444.45	498.44	558.49	311.03	768.8	138.5	145.35	751.27	128.51	225.69	361.92	110.53	373.2	401.83	134.14	274.24	670.83	808.71	130.75	724.96	829.18	165.52	751.46	762.14	174.46	701.74	739.8	141.16	480.12	831.84	460.24	536.43	825.93	487.09	523.61	752.49	476.7	474.57	758.81	450.64	763.42	530.59	160.89	812.03	564.64	178.59	821.81	497.83	188.09	775.95	469.65	161.17	400.72	406.36	436.61	457.7	395.52	436.88	442.5	322.73	421.94	387.27	331.15	420.48	720.62	63.113	132.97	696.11	83.171	165.32	707.41	51.72	198.61	285.07	81.839	328.88	293.51	109.9	294.29	315.68	79.707	270.09	909.6	69.262	265.32	918.99	82.602	149.18	968.93	108.01	238.99	525.81	43.823	294.99	475.48	35.955	406.26	572.36	42.807	355.97
266	1.1079	635.94	1532.1	500.88	600.26	1550.7	97.545	685.41	1852.5	311.62	702.71	1486.9	302.69	555.24	1582.3	311.41	585.75	1111.2	140.18	595.04	1132.8	480.67	662.69	1041.2	180.53	658.03	1041.5	450.54	578.37	955.85	120.41	542.3	969.12	485.03	442.79	1048.2	341.33	444.65	1038.9	256.27	432.76	1010.4	299.43	758.72	585.02	152.32	771.81	590.86	290.17	486.27	556.28	444.16	499.79	558.46	310.77	783.12	138.48	146.09	765.9	128.25	226.55	362.29	110.81	373.02	402.2	134.35	274.01	675.6	807.57	130.78	729.54	828.03	165.5	756.11	761.13	174.8	706.68	738.7	141.4	483.46	831.94	459.99	539.75	825.66	486.79	526.47	752.3	476.38	477.45	758.96	450.37	770.02	530.37	161.57	817.95	565.37	179.22	829.05	498.77	188.72	783.73	469.69	161.84	401.46	406.7	436.29	458.41	395.72	436.66	443.06	322.97	421.74	387.86	331.52	420.19	736.36	62.142	133.77	711.55	81.722	166.19	722.34	50.357	199.36	285.27	82.36	328.57	293.77	110.4	293.94	315.95	80.105	269.8	925.33	72.046	265.95	934.35	85.516	149.77	983.85	111.91	239.51	525.93	43.738	294.99	475.47	35.979	406.2	572.44	42.671	356
267	1.112	640.78	1531.1	500.54	605.3	1549.7	97.176	690.4	1851.5	311.2	707.64	1485.9	302.39	560.22	1581.4	311.04	590.48	1110.1	139.81	599.63	1132	480.36	667.43	1040.2	180.26	662.56	1040.7	450.28	583.11	954.69	120.21	546.54	968.63	484.82	447.55	1047.5	340.92	449.41	1038.1	255.82	437.33	1009.7	299.03	764.21	584.54	152.97	777.36	590.71	290.78	487.64	556.37	443.89	501.15	558.43	310.53	797.25	138.57	146.85	780.36	128.1	227.45	362.63	111.1	372.84	402.57	134.56	273.8	680.37	806.37	130.79	734.15	826.86	165.5	760.75	760.07	175.12	711.65	737.54	141.6	486.83	832.03	459.74	543.09	825.37	486.51	529.36	752.11	476.06	480.36	759.09	450.1	776.56	530.13	162.23	823.82	566.04	179.82	836.22	499.68	189.33	791.43	469.73	162.5	402.22	407.05	435.98	459.13	395.94	436.46	443.61	323.22	421.55	388.45	331.9	419.91	751.91	61.323	134.61	726.81	80.429	167.11	736.59	49.16	200.12	285.47	82.884	328.28	294.03	110.91	293.6	316.22	80.514	269.51	940.83	74.94	266.57	949.45	88.513	150.35	998.53	115.87	240	526.05	43.658	295	475.46	35.999	406.15	572.53	42.539	356.04
268	1.1162	645.65	1530	500.18	610.34	1548.8	96.8	695.4	1850.5	310.78	712.58	1484.8	302.08	565.22	1580.4	310.65	595.22	1108.9	139.44	604.27	1131.1	480.03	672.18	1039.1	179.97	667.11	1039.7	450	587.86	953.49	119.99	550.8	968.12	484.61	452.34	1046.8	340.51	454.19	1037.1	255.39	441.92	1008.9	298.65	769.66	584	153.59	782.9	590.52	291.38	489.04	556.47	443.64	502.54	558.4	310.3	811.17	138.77	147.62	794.65	128.08	228.37	362.95	111.4	372.65	402.94	134.78	273.61	685.13	805.13	130.79	738.77	825.66	165.5	765.4	758.95	175.42	716.64	736.34	141.76	490.23	832.11	459.49	546.47	825.07	486.23	532.27	751.92	475.75	483.3	759.22	449.84	783.05	529.85	162.87	829.64	566.65	180.38	843.31	500.55	189.91	799.06	469.75	163.14	402.98	407.41	435.69	459.86	396.15	436.27	444.18	323.47	421.38	389.05	332.29	419.64	767.26	60.647	135.47	741.88	79.283	168.05	750.03	48.121	200.86	285.67	83.413	328	294.28	111.43	293.27	316.49	80.938	269.24	956.1	77.929	267.19	964.29	91.579	150.92	1012.9	119.88	240.47	526.17	43.584	295.01	475.45	36.016	406.1	572.61	42.412	356.09
269	1.1204	650.54	1528.9	499.82	615.38	1547.7	96.417	700.4	1849.5	310.35	717.55	1483.8	301.75	570.24	1579.4	310.26	599.98	1107.8	139.05	608.95	1130.2	479.7	676.94	1038	179.66	671.71	1038.8	449.7	592.61	952.24	119.78	555.11	967.6	484.41	457.14	1046	340.12	458.98	1036.2	254.96	446.53	1008.1	298.26	775.09	583.42	154.19	788.44	590.3	291.95	490.46	556.57	443.4	503.96	558.36	310.08	824.89	139.06	148.4	808.75	128.16	229.3	363.24	111.71	372.48	403.32	135.01	273.44	689.9	803.85	130.78	743.43	824.44	165.49	770.06	757.79	175.7	721.65	735.09	141.9	493.66	832.18	459.25	549.87	824.76	485.95	535.2	751.71	475.44	486.27	759.35	449.58	789.5	529.55	163.48	835.41	567.21	180.91	850.32	501.38	190.46	806.61	469.76	163.76	403.77	407.77	435.42	460.6	396.38	436.1	444.76	323.74	421.22	389.67	332.69	419.4	782.4	60.103	136.35	756.75	78.275	169.02	762.56	47.23	201.58	285.88	83.948	327.73	294.52	111.98	292.97	316.76	81.378	268.98	971.11	80.998	267.81	978.86	94.698	151.47	1027.1	123.93	240.91	526.29	43.517	295.03	475.44	36.029	406.06	572.68	42.29	356.13
270	1.1246	655.46	1527.7	499.45	620.42	1546.7	96.025	705.41	1848.5	309.9	722.53	1482.7	301.4	575.29	1578.4	309.86	604.74	1106.6	138.64	613.67	1129.3	479.36	681.71	1036.8	179.33	676.33	1037.8	449.39	597.37	950.96	119.56	559.44	967.07	484.22	461.97	1045.3	339.72	463.78	1035.1	254.52	451.15	1007.2	297.89	780.5	582.8	154.77	793.98	590.04	292.5	491.92	556.66	443.18	505.42	558.32	309.88	838.4	139.42	149.18	822.66	128.33	230.25	363.52	112.04	372.31	403.7	135.24	273.29	694.67	802.53	130.76	748.13	823.2	165.47	774.72	756.58	175.96	726.68	733.81	142.01	497.12	832.24	459.02	553.3	824.44	485.68	538.17	751.5	475.14	489.27	759.46	449.33	795.9	529.21	164.07	841.14	567.7	181.41	857.27	502.17	190.99	814.09	469.75	164.36	404.57	408.14	435.17	461.38	396.61	435.94	445.36	324.01	421.09	390.31	333.09	419.16	797.31	59.68	137.26	771.42	77.395	170	774.07	46.478	202.25	286.08	84.491	327.49	294.76	112.53	292.68	317.02	81.835	268.75	985.86	84.132	268.43	993.16	97.852	152.02	1041	128	241.34	526.4	43.455	295.05	475.43	36.038	406.02	572.75	42.172	356.18
271	1.1288	660.41	1526.6	499.07	625.48	1545.6	95.624	710.44	1847.4	309.45	727.54	1481.5	301.05	580.35	1577.3	309.46	609.52	1105.3	138.23	618.43	1128.4	479.01	686.51	1035.6	178.98	681	1036.9	449.07	602.14	949.63	119.34	563.81	966.52	484.02	466.83	1044.5	339.32	468.61	1034.1	254.1	455.81	1006.4	297.51	785.9	582.13	155.31	799.51	589.75	293.02	493.42	556.76	442.97	506.91	558.28	309.68	851.68	139.86	149.96	836.35	128.58	231.2	363.78	112.38	372.16	404.08	135.49	273.17	699.45	801.17	130.72	752.87	821.95	165.43	779.4	755.34	176.2	731.71	732.48	142.1	500.62	832.29	458.79	556.77	824.11	485.42	541.16	751.28	474.86	492.3	759.57	449.08	802.26	528.83	164.64	846.85	568.14	181.87	864.15	502.91	191.48	821.5	469.71	164.94	405.42	408.51	434.94	462.18	396.84	435.81	445.98	324.28	420.97	390.97	333.51	418.95	811.99	59.366	138.18	785.85	76.634	171.01	784.45	45.855	202.88	286.29	85.046	327.26	295	113.11	292.43	317.28	82.311	268.53	1000.3	87.313	269.05	1007.2	101.02	152.56	1054.6	132.07	241.75	526.51	43.4	295.07	475.42	36.043	405.99	572.82	42.058	356.22
272	1.1329	665.4	1525.4	498.68	630.55	1544.4	95.214	715.47	1846.3	309	732.57	1480.4	300.67	585.43	1576.2	309.04	614.33	1104	137.8	623.23	1127.4	478.65	691.34	1034.4	178.61	685.7	1035.9	448.73	606.93	948.28	119.12	568.22	965.96	483.83	471.71	1043.7	338.92	473.47	1033	253.66	460.48	1005.5	297.12	791.29	581.42	155.82	805.06	589.42	293.51	494.96	556.85	442.78	508.46	558.23	309.5	864.74	140.35	150.75	849.82	128.89	232.15	364.04	112.74	372.02	404.46	135.74	273.07	704.24	799.79	130.68	757.65	820.68	165.37	784.09	754.06	176.42	736.73	731.13	142.17	504.16	832.33	458.57	560.27	823.77	485.17	544.19	751.06	474.58	495.37	759.67	448.84	808.59	528.43	165.17	852.52	568.51	182.3	870.96	503.6	191.94	828.85	469.66	165.5	406.3	408.9	434.73	463.03	397.08	435.69	446.63	324.56	420.88	391.67	333.94	418.76	826.42	59.149	139.12	800.05	75.981	172.03	793.62	45.35	203.44	286.5	85.613	327.06	295.24	113.71	292.2	317.54	82.806	268.34	1014.5	90.524	269.69	1020.9	104.2	153.1	1068	136.13	242.15	526.61	43.35	295.09	475.41	36.045	405.97	572.89	41.947	356.27
273	1.1371	670.42	1524.1	498.27	635.62	1543.3	94.795	720.52	1845.2	308.53	737.63	1479.2	300.28	590.55	1575.1	308.62	619.17	1102.7	137.36	628.08	1126.4	478.28	696.19	1033.2	178.23	690.43	1034.8	448.38	611.74	946.9	118.88	572.66	965.38	483.64	476.61	1042.9	338.51	478.34	1032	253.23	465.19	1004.6	296.74	796.67	580.67	156.3	810.6	589.07	293.97	496.57	556.94	442.61	510.06	558.17	309.33	877.56	140.89	151.54	863.06	129.26	233.09	364.29	113.11	371.9	404.85	136	272.99	709.05	798.38	130.63	762.48	819.41	165.27	788.8	752.76	176.62	741.75	729.76	142.23	507.73	832.35	458.34	563.8	823.42	484.92	547.25	750.82	474.31	498.48	759.77	448.6	814.89	527.99	165.68	858.17	568.82	182.69	877.72	504.24	192.36	836.13	469.57	166.03	407.23	409.28	434.55	463.92	397.31	435.59	447.32	324.84	420.8	392.41	334.38	418.58	840.58	59.017	140.07	814	75.425	173.06	801.48	44.951	203.93	286.72	86.195	326.89	295.49	114.32	292	317.8	83.322	268.18	1028.4	93.746	270.33	1034.3	107.35	153.64	1081	140.14	242.54	526.71	43.305	295.12	475.4	36.043	405.95	572.95	41.839	356.32
